<mxfile host="app.diagrams.net" modified="2021-12-23T06:50:07.139Z" agent="5.0 (Windows NT 10.0; Win64; x64) AppleWebKit/537.36 (KHTML, like Gecko) Chrome/96.0.4664.110 Safari/537.36 Edg/96.0.1054.62" etag="7hMC8afZAvXpBmjxFlOU" version="16.0.3" type="github">
  <diagram id="uacXLQnCL4nXlHAS-Tgn" name="Page-1">
    <mxGraphModel dx="646" dy="420" grid="0" gridSize="10" guides="1" tooltips="1" connect="1" arrows="1" fold="1" page="1" pageScale="1" pageWidth="827" pageHeight="1169" math="0" shadow="0">
      <root>
        <mxCell id="0" />
        <mxCell id="1" parent="0" />
        <mxCell id="_C2vTxvz3vnbbnH4czKE-10" value="factoryStructureApi" style="rounded=1;whiteSpace=wrap;html=1;fillColor=#dae8fc;strokeColor=#6c8ebf;" parent="1" vertex="1">
          <mxGeometry x="285" y="177" width="120" height="177" as="geometry" />
        </mxCell>
        <mxCell id="_C2vTxvz3vnbbnH4czKE-11" value="create&lt;br&gt;新增工厂对象" style="rounded=1;whiteSpace=wrap;html=1;fillColor=#d5e8d4;strokeColor=#82b366;" parent="1" vertex="1">
          <mxGeometry x="447" y="701" width="120" height="48" as="geometry" />
        </mxCell>
        <mxCell id="_C2vTxvz3vnbbnH4czKE-13" value="update&lt;br&gt;更新工厂对象" style="rounded=1;whiteSpace=wrap;html=1;fillColor=#d5e8d4;strokeColor=#82b366;" parent="1" vertex="1">
          <mxGeometry x="447" y="778.5" width="120" height="44" as="geometry" />
        </mxCell>
        <mxCell id="_C2vTxvz3vnbbnH4czKE-14" value="delete&lt;br&gt;删除工厂对象" style="rounded=1;whiteSpace=wrap;html=1;fillColor=#d5e8d4;strokeColor=#82b366;" parent="1" vertex="1">
          <mxGeometry x="447" y="854" width="120" height="42" as="geometry" />
        </mxCell>
        <mxCell id="_C2vTxvz3vnbbnH4czKE-15" value="serach&lt;br&gt;查询工厂结构" style="rounded=1;whiteSpace=wrap;html=1;fillColor=#d5e8d4;strokeColor=#82b366;" parent="1" vertex="1">
          <mxGeometry x="447" y="928" width="120" height="42" as="geometry" />
        </mxCell>
        <mxCell id="_C2vTxvz3vnbbnH4czKE-16" value="权限判定" style="rounded=0;whiteSpace=wrap;html=1;fillColor=#f5f5f5;fontColor=#333333;strokeColor=#666666;" parent="1" vertex="1">
          <mxGeometry x="152" y="137" width="386" height="30" as="geometry" />
        </mxCell>
        <mxCell id="_C2vTxvz3vnbbnH4czKE-17" value="" style="rounded=1;whiteSpace=wrap;html=1;fillColor=#dae8fc;strokeColor=#6c8ebf;" parent="1" vertex="1">
          <mxGeometry x="127" y="441" width="120" height="177" as="geometry" />
        </mxCell>
        <mxCell id="_C2vTxvz3vnbbnH4czKE-18" value="retrievePersonal&lt;br&gt;检索个人文件夹下的资源" style="rounded=1;whiteSpace=wrap;html=1;fillColor=#d5e8d4;strokeColor=#82b366;" parent="1" vertex="1">
          <mxGeometry x="290" y="505.5" width="120" height="48" as="geometry" />
        </mxCell>
        <mxCell id="_C2vTxvz3vnbbnH4czKE-21" value="retrievePublic&lt;br&gt;检索公共分类下的资源" style="rounded=1;whiteSpace=wrap;html=1;fillColor=#d5e8d4;strokeColor=#82b366;" parent="1" vertex="1">
          <mxGeometry x="290" y="445" width="120" height="42" as="geometry" />
        </mxCell>
        <mxCell id="RLxAg9gOn4IVBn6dxW3O-1" value="" style="rounded=1;whiteSpace=wrap;html=1;fillColor=#dae8fc;strokeColor=#6c8ebf;" vertex="1" parent="1">
          <mxGeometry x="108" y="701" width="272" height="270" as="geometry" />
        </mxCell>
        <mxCell id="RLxAg9gOn4IVBn6dxW3O-2" value="工厂结构" style="rounded=1;whiteSpace=wrap;html=1;strokeColor=none;fillColor=none;fontSize=18;" vertex="1" parent="1">
          <mxGeometry x="144" y="726" width="120" height="39" as="geometry" />
        </mxCell>
        <mxCell id="RLxAg9gOn4IVBn6dxW3O-3" value="BomView" style="rounded=1;whiteSpace=wrap;html=1;fontSize=12;fillColor=#d5e8d4;strokeColor=#82b366;" vertex="1" parent="1">
          <mxGeometry x="133" y="786" width="100" height="37" as="geometry" />
        </mxCell>
        <mxCell id="RLxAg9gOn4IVBn6dxW3O-4" value="BomLine" style="rounded=1;whiteSpace=wrap;html=1;fontSize=12;fillColor=#d5e8d4;strokeColor=#82b366;" vertex="1" parent="1">
          <mxGeometry x="131" y="873" width="100" height="37" as="geometry" />
        </mxCell>
        <mxCell id="RLxAg9gOn4IVBn6dxW3O-5" value="FactoryItem" style="rounded=1;whiteSpace=wrap;html=1;fontSize=12;fillColor=#fff2cc;strokeColor=#d6b656;" vertex="1" parent="1">
          <mxGeometry x="260" y="827" width="100" height="37" as="geometry" />
        </mxCell>
        <mxCell id="RLxAg9gOn4IVBn6dxW3O-7" value="" style="endArrow=classic;html=1;rounded=0;fontSize=12;exitX=1;exitY=0.5;exitDx=0;exitDy=0;entryX=0;entryY=0.5;entryDx=0;entryDy=0;" edge="1" parent="1" source="RLxAg9gOn4IVBn6dxW3O-5" target="_C2vTxvz3vnbbnH4czKE-11">
          <mxGeometry width="50" height="50" relative="1" as="geometry">
            <mxPoint x="368" y="872" as="sourcePoint" />
            <mxPoint x="418" y="822" as="targetPoint" />
            <Array as="points">
              <mxPoint x="403" y="846" />
              <mxPoint x="403" y="725" />
            </Array>
          </mxGeometry>
        </mxCell>
        <mxCell id="RLxAg9gOn4IVBn6dxW3O-8" value="" style="endArrow=classic;html=1;rounded=0;fontSize=12;entryX=0;entryY=0.5;entryDx=0;entryDy=0;" edge="1" parent="1" target="_C2vTxvz3vnbbnH4czKE-13">
          <mxGeometry width="50" height="50" relative="1" as="geometry">
            <mxPoint x="363" y="846" as="sourcePoint" />
            <mxPoint x="444" y="800.5" as="targetPoint" />
            <Array as="points">
              <mxPoint x="403" y="846" />
              <mxPoint x="403" y="801" />
            </Array>
          </mxGeometry>
        </mxCell>
        <mxCell id="RLxAg9gOn4IVBn6dxW3O-9" value="" style="endArrow=classic;html=1;rounded=0;fontSize=12;exitX=1;exitY=0.5;exitDx=0;exitDy=0;entryX=0;entryY=0.5;entryDx=0;entryDy=0;" edge="1" parent="1">
          <mxGeometry width="50" height="50" relative="1" as="geometry">
            <mxPoint x="361" y="845.5" as="sourcePoint" />
            <mxPoint x="448" y="875" as="targetPoint" />
            <Array as="points">
              <mxPoint x="403" y="846" />
              <mxPoint x="403" y="875" />
            </Array>
          </mxGeometry>
        </mxCell>
        <mxCell id="RLxAg9gOn4IVBn6dxW3O-10" value="" style="endArrow=classic;html=1;rounded=0;fontSize=12;entryX=0;entryY=0.5;entryDx=0;entryDy=0;" edge="1" parent="1" target="_C2vTxvz3vnbbnH4czKE-15">
          <mxGeometry width="50" height="50" relative="1" as="geometry">
            <mxPoint x="403" y="876" as="sourcePoint" />
            <mxPoint x="403" y="955" as="targetPoint" />
            <Array as="points">
              <mxPoint x="403" y="949" />
            </Array>
          </mxGeometry>
        </mxCell>
        <mxCell id="RLxAg9gOn4IVBn6dxW3O-11" value="分类" style="rounded=1;whiteSpace=wrap;html=1;strokeColor=none;fillColor=none;fontSize=18;" vertex="1" parent="1">
          <mxGeometry x="123" y="448" width="120" height="39" as="geometry" />
        </mxCell>
        <mxCell id="RLxAg9gOn4IVBn6dxW3O-17" value="" style="edgeStyle=orthogonalEdgeStyle;rounded=0;orthogonalLoop=1;jettySize=auto;html=1;fontSize=12;" edge="1" parent="1" source="RLxAg9gOn4IVBn6dxW3O-13" target="_C2vTxvz3vnbbnH4czKE-18">
          <mxGeometry relative="1" as="geometry" />
        </mxCell>
        <mxCell id="RLxAg9gOn4IVBn6dxW3O-13" value="Category" style="rounded=1;whiteSpace=wrap;html=1;fontSize=12;fillColor=#fff2cc;strokeColor=#d6b656;" vertex="1" parent="1">
          <mxGeometry x="133" y="511" width="100" height="37" as="geometry" />
        </mxCell>
        <mxCell id="RLxAg9gOn4IVBn6dxW3O-16" value="searchCategory&lt;br&gt;搜索分类" style="rounded=1;whiteSpace=wrap;html=1;fillColor=#d5e8d4;strokeColor=#82b366;" vertex="1" parent="1">
          <mxGeometry x="289" y="570" width="120" height="48" as="geometry" />
        </mxCell>
        <mxCell id="RLxAg9gOn4IVBn6dxW3O-18" value="" style="endArrow=classic;html=1;rounded=0;fontSize=12;exitX=1;exitY=0.5;exitDx=0;exitDy=0;" edge="1" parent="1" source="RLxAg9gOn4IVBn6dxW3O-13">
          <mxGeometry width="50" height="50" relative="1" as="geometry">
            <mxPoint x="242" y="527" as="sourcePoint" />
            <mxPoint x="292" y="469" as="targetPoint" />
            <Array as="points">
              <mxPoint x="262" y="530" />
              <mxPoint x="262" y="469" />
            </Array>
          </mxGeometry>
        </mxCell>
        <mxCell id="RLxAg9gOn4IVBn6dxW3O-19" value="" style="endArrow=classic;html=1;rounded=0;fontSize=12;entryX=0;entryY=0.5;entryDx=0;entryDy=0;" edge="1" parent="1" target="RLxAg9gOn4IVBn6dxW3O-16">
          <mxGeometry width="50" height="50" relative="1" as="geometry">
            <mxPoint x="262" y="530" as="sourcePoint" />
            <mxPoint x="312" y="546" as="targetPoint" />
            <Array as="points">
              <mxPoint x="262" y="594" />
            </Array>
          </mxGeometry>
        </mxCell>
      </root>
    </mxGraphModel>
  </diagram>
</mxfile>
